<?xml version="1.0" encoding="utf-8"?>
<svg viewBox="-585.4 -484 1024 1024" xmlns="http://www.w3.org/2000/svg">
  <rect style="stroke-width: 0px; stroke-linecap: round; stroke-linejoin: round; stroke: rgb(0, 0, 0); fill-rule: nonzero; paint-order: fill; fill: rgb(79, 83, 117); transform-origin: -78.204px 20.951px;" x="-464.771" y="-365.616" width="773.134" height="773.134" rx="200" ry="200"/>
  <path d="M -140.261 143.557 C -140.261 134.061 -132.553 126.354 -123.054 126.354 L -19.829 126.354 C -6.584 126.354 1.71 140.703 -4.931 152.162 C -7.993 157.493 -13.671 160.763 -19.829 160.763 L -123.054 160.763 C -132.553 160.763 -140.261 153.055 -140.261 143.557 M -243.485 -9.148 C -243.485 -53.948 -200.993 -88.185 -156.431 -84.02 C -99.864 -78.755 -42.986 -78.755 13.547 -84.02 C 58.109 -88.185 100.601 -53.948 100.601 -9.148 L 100.601 30.664 C 100.943 46.387 89.797 60.049 74.278 62.835 C 45.206 67.892 -6.239 74.741 -71.441 74.741 C -136.649 74.741 -188.089 67.856 -217.163 62.835 C -232.648 60.049 -243.795 46.387 -243.485 30.664 L -243.485 -9.148 Z M -87.203 -37.603 C -89.921 -38.053 -92.672 -37.189 -94.668 -35.265 L -126.326 -4.296 C -147.83 -5.604 -169.3 -7.703 -190.705 -10.592 C -197.275 -11.247 -202.092 -4.538 -199.374 1.517 C -198.203 4.099 -195.833 5.958 -193.044 6.439 C -174.118 9.056 -150.65 11.567 -123.536 13.08 C -121.094 13.217 -118.755 12.323 -117.035 10.638 L -91.088 -14.689 L -61.947 44.151 C -59.297 49.484 -52.139 50.586 -48.044 46.284 L -15.974 12.906 C 6.15 11.602 28.205 9.433 50.157 6.439 C 56.696 5.303 59.517 -2.472 55.286 -7.567 C 53.463 -9.734 50.673 -10.867 47.819 -10.592 C 29.308 -8.047 6.286 -5.604 -20.313 -4.091 C -22.48 -3.954 -24.51 -3.023 -26.024 -1.476 L -51.965 25.536 L -80.939 -32.959 C -82.144 -35.4 -84.483 -37.156 -87.203 -37.603" style="fill: rgb(239, 241, 255);" transform="matrix(1, 0, 0, 1, 4.547473508864641e-13, 0)"/>
  <path d="M -54.238 -222.343 C -31.29 -235.593 -31.29 -268.693 -54.238 -281.941 C -77.153 -295.19 -105.853 -278.637 -105.853 -252.14 C -105.853 -239.859 -99.277 -228.503 -88.646 -222.343 L -88.646 -183.325 L -157.463 -183.325 C -242.97 -183.325 -312.301 -113.992 -312.301 -28.485 L -312.301 -11.282 C -331.297 -11.282 -346.711 4.133 -346.711 23.126 L -346.711 91.947 C -346.711 110.939 -331.297 126.354 -312.301 126.354 L -312.301 160.763 C -312.301 198.785 -281.474 229.58 -243.485 229.58 L 100.601 229.58 C 138.623 229.58 169.419 198.785 169.419 160.763 L 169.419 126.354 C 188.445 126.354 203.827 110.939 203.827 91.947 L 203.827 23.126 C 203.827 4.133 188.445 -11.282 169.419 -11.282 L 169.419 -28.485 C 169.419 -113.992 100.119 -183.325 14.58 -183.325 L -54.238 -183.325 L -54.238 -222.343 Z M 135.01 -28.485 L 135.01 160.763 C 135.01 179.757 119.629 195.172 100.601 195.172 L -243.485 195.172 C -262.479 195.172 -277.894 179.757 -277.894 160.763 L -277.894 -28.485 C -277.894 -94.999 -223.976 -148.917 -157.463 -148.917 L 14.58 -148.917 C 81.092 -148.917 135.01 -94.999 135.01 -28.485" style="fill: rgb(239, 241, 255);" transform="matrix(1, 0, 0, 1, 4.547473508864641e-13, 0)"/>
</svg>