<svg xmlns="http://www.w3.org/2000/svg" width="1433" height="200" fill="none"><g fill="#f8f9fa" clip-path="url(#a)"><path d="M1537.5 115.707v.484C984.718-184.723 431.932 226.405-120.854 36.569v-4.062C431.932 223.554 984.718-186.42 1537.5 115.707Z"/><path d="M1537.5 121.488v.508C984.718-165.002 431.932 260.262-120.854 84.758v-4.166C431.932 257.33 984.718-166.699 1537.5 121.488Z"/><path d="M1537.5 127.454v.508c-552.782-272.77-1105.568 166.976-1658.354 6.127v-4.246C431.932 291.949 984.718-146.551 1537.5 127.454Z"/><path d="M1537.5 133.454v.519C984.718-124.234 431.932 330.248-120.854 184.354v-4.327C431.932 327.201 984.718-126 1537.5 133.454Z"/><path d="M420.794 214C793.026 133.224 1165.25-25.213 1537.5 139.57v.577C1169.9-21.786 802.332 131.539 434.764 214h-13.97Z"/><path d="M558.841 214c326.213-91.162 652.429-203.868 978.659-68.233v.531C1214.58 12.775 891.676 122.584 568.78 214h-9.939Z"/><path d="M665.068 214c290.8-90.643 581.612-175.02 872.432-61.99v.519C1249.41 41.243 961.327 123.669 673.256 214h-8.188Z"/><path d="M755.368 214c260.712-85.45 521.402-149.944 782.132-55.724v.531C1279.18 66.064 1020.88 129.116 762.566 214h-7.198Z"/><path d="M835.948 214c233.842-77.949 467.692-127.557 701.552-49.435v.542C1305.8 88.22 1074.13 136.766 842.455 214h-6.507Z"/></g><defs><clipPath id="a"><path fill="#fff" d="M-32 0h1496v214H-32z"/></clipPath></defs></svg>