<svg xmlns="http://www.w3.org/2000/svg" width="1433" height="218" fill="none"><g fill="#f8f9fa" clip-path="url(#a)"><path d="M-90.855 51.976v-.7c797.89 434.34 1595.775-159.081 2393.665 114.927v5.863C1504.92-103.691 707.035 488.031-90.854 51.976Z"/><path d="M-90.855 43.631v-.733C707.035 457.15 1504.92-156.674 2302.81 96.664v6.013C1504.92-152.443 707.035 459.599-90.854 43.631Z"/><path d="M-90.855 35.07v-.733c797.89 393.665 1595.775-241.062 2393.665-8.894v6.13C1504.92-202.412 707.035 430.517-90.854 35.07Z"/><path d="M-90.855 26.359v-.75C707.035 398.288 1504.92-257.693 2302.81-47.11v6.246C1504.92-253.296 707.035 400.853-90.854 26.36Z"/><path d="M-90.855 17.515v-.75C707.035 368.174 1504.92-309.376 2302.81-120.697v6.313C1504.92-304.946 707.035 370.772-90.854 17.515Z"/><path d="M-90.855 8.537v-.766C707.035 337.76 1504.92-361.626 2302.81-195.05v6.346C1504.92-357.146 707.035 340.358-90.854 8.537Z"/><path d="M-90.855-.44v-.75C707.035 307.08 1504.92-414.26 2302.81-270.001v6.412C1504.92-409.762 707.035 309.711-90.854-.441Z"/><path d="M-90.855-9.485v-.766C707.035 276.266 1504.92-467.159 2302.81-345.287v6.43C1504.92-462.628 707.035 278.898-90.854-9.485Z"/><path d="M-90.855-18.562v-.783c797.89 264.731 1595.775-500.83 2393.665-401.41v6.446C1504.92-515.645 707.035 248.017-90.854-18.562Z"/><path d="M-90.855-27.657v-.782C707.035 214.489 1504.92-573.191 2302.81-496.14v6.429C1504.92-568.661 707.035 217.137-90.854-27.656Z"/><path d="M-90.855-36.7v-.784C707.035 183.692 1504.92-626.057 2302.81-571.492v6.429C1504.92-621.56 707.035 186.307-90.854-36.701Z"/><path d="M-90.855-45.712v-.716C707.035 153.045 1504.92-678.69 2302.81-646.377v6.362C1504.92-674.193 707.035 155.643-90.854-45.712Z"/><path d="M-90.855-54.64v-.782C707.035 122.63 1504.92-730.874 2302.81-720.697v6.363C1504.92-726.443 707.035 125.129-90.854-54.639Z"/><path d="M-90.855-63.5v-.766C707.035 92.55 1504.92-782.524 2302.81-794.283v6.229C1504.92-778.144 707.035 95.148-90.854-63.5Z"/><path d="M-90.855-72.245v-.733C581.533 41.516 1253.92-576.971 1926.28-794.282H1943C1265.04-583.518 587.102 44.714-90.855-72.245Z"/><path d="M-90.855-80.806v-.733C529.572 8.137 1150-526.488 1770.44-794.283h11.28C1157.51-529.536 533.344 10.769-90.854-80.806Z"/></g><defs><clipPath id="a"><path fill="#fff" d="M-2-73h1496v291H-2z"/></clipPath></defs></svg>